0
SECTION
2
HEADER
9
$INSUNITS
70
4
9
$ACADVER
1
AC1014
9
$HANDSEED
5
FFFF
0
ENDSEC
0
SECTION
2
TABLES
0
TABLE
2
VPORT
5
8
100
AcDbSymbolTable
0
ENDTAB
0
TABLE
2
LTYPE
5
5
100
AcDbSymbolTable
0
LTYPE
5
14
100
AcDbSymbolTableRecord
100
AcDbLinetypeTableRecord
2
BYBLOCK
70
0
0
LTYPE
5
15
100
AcDbSymbolTableRecord
100
AcDbLinetypeTableRecord
2
BYLAYER
70
0
0
ENDTAB
0
TABLE
2
LAYER
5
2
100
AcDbSymbolTable
70
2
0
LAYER
5
50
100
AcDbSymbolTableRecord
100
AcDbLayerTableRecord
2
0
70
0
6
CONTINUOUS
0
ENDTAB
0
TABLE
2
STYLE
5
3
100
AcDbSymbolTable
70
1
0
STYLE
5
11
100
AcDbSymbolTableRecord
100
AcDbTextStyleTableRecord
2
STANDARD
70
0
0
ENDTAB
0
TABLE
2
VIEW
5
6
100
AcDbSymbolTable
70
0
0
ENDTAB
0
TABLE
2
UCS
5
7
100
AcDbSymbolTable
70
0
0
ENDTAB
0
TABLE
2
APPID
5
9
100
AcDbSymbolTable
70
2
0
APPID
5
12
100
AcDbSymbolTableRecord
100
AcDbRegAppTableRecord
2
ACAD
70
0
0
ENDTAB
0
TABLE
2
DIMSTYLE
5
A
100
AcDbSymbolTable
70
1
0
ENDTAB
0
TABLE
2
BLOCK_RECORD
5
1
100
AcDbSymbolTable
70
1
0
BLOCK_RECORD
5
1F
100
AcDbSymbolTableRecord
100
AcDbBlockTableRecord
2
*MODEL_SPACE
0
BLOCK_RECORD
5
1B
100
AcDbSymbolTableRecord
100
AcDbBlockTableRecord
2
*PAPER_SPACE
0
ENDTAB
0
ENDSEC
0
SECTION
2
BLOCKS
0
BLOCK
5
20
100
AcDbEntity
100
AcDbBlockBegin
2
*MODEL_SPACE
0
ENDBLK
5
21
100
AcDbEntity
100
AcDbBlockEnd
0
BLOCK
5
1C
100
AcDbEntity
100
AcDbBlockBegin
2
*PAPER_SPACE
0
ENDBLK
5
1D
100
AcDbEntity
100
AcDbBlockEnd
0
ENDSEC
0
SECTION
2
ENTITIES
0
LWPOLYLINE
5
100
100
AcDbEntity
8
0
100
AcDbPolyline
90
63
70
1
43
0.0
10
-481.78583857390294
20
428.31054884804155
10
-481.78583857390311
20
812.01054884804205
42
0.41421356237310542
10
-483.78583857390322
20
814.01054884804216
10
-550.77162453469293
20
814.01054884804023
42
-0.1989123673796738
10
-552.18583809706581
20
814.59633528566701
10
-559.60005165943937
20
822.01054884804012
42
-0.19891236737965257
10
-560.18583809706615
20
823.42476241041277
10
-560.18583809706831
20
901.31054884804166
42
0.41421356237309503
10
-562.18583809706843
20
903.31054884804166
10
-909.38583809706699
20
903.31054884804166
10
-909.38583809706472
20
823.4247624104147
42
-0.19891236737966342
10
-909.97162453469161
20
822.01054884804137
10
-917.38583809706461
20
814.59633528566815
42
-0.19891236737967105
10
-918.80005165943771
20
814.01054884804114
10
-985.78583857390322
20
814.01054884803909
42
0.41421356237309503
10
-987.78583857390333
20
812.01054884803909
10
-987.78583857390322
20
428.31054884804132
42
0.4142135623730846
10
-985.78583857390311
20
426.31054884804138
10
-961.57167672546393
20
426.31054884804138
42
0.41421356237309503
10
-959.57167672546393
20
428.31054884804138
10
-959.57167672546393
20
433.21841387598795
42
-0.41421356237309503
10
-957.57167672546393
20
435.21841387598795
10
-946.57167672546382
20
435.21841387598795
42
-0.41421356237309503
10
-944.5716767254637
20
433.21841387598795
10
-944.57167672546393
20
427.21841387598801
42
-0.41421356237309503
10
-946.57167672546393
20
425.21841387598795
10
-956.78583809706595
20
425.21841387598795
42
0.41421356237309503
10
-958.78583809706595
20
423.21841387598795
10
-958.78583809706595
20
399.31054884804161
42
0.41421356237309503
10
-956.78583809706595
20
397.31054884804161
10
-777.78583809701286
20
397.31054884804166
42
0.41421356237337598
10
-775.78583809701286
20
399.3105488480436
10
-775.78583809705435
20
442.50592336189163
42
-0.17545237876443268
10
-775.32228065624895
20
443.7862921612226
10
-769.64939553785803
20
450.59375430329146
42
0.17545237876417849
10
-769.18583809705285
20
451.87412310262084
10
-769.1858380970524
20
476.29633528566922
42
-0.19891236737967105
10
-768.60005165942539
20
477.71054884804249
10
-761.18583809705228
20
485.12476241041503
42
-0.19891236737967
10
-759.77162453467918
20
485.71054884804192
10
-709.80005165942316
20
485.71054884803857
42
-0.19891236737965257
10
-708.38583809705028
20
485.12476241041162
10
-700.97162453467729
20
477.710548848038
42
-0.19891236737964496
10
-700.38583809705062
20
476.29633528566512
10
-700.38583809705096
20
451.8741231026188
42
0.1754523787641761
10
-699.92228065624556
20
450.59375430328919
10
-694.24939553784793
20
443.78629216121169
42
-0.17545237876425598
10
-693.78583809704287
20
442.5059233618822
10
-693.78583809705776
20
399.31054884804246
42
0.41421356237319906
10
-691.78583809705765
20
397.31054884804172
10
-512.78583809706583
20
397.31054884804172
42
0.41421356237309503
10
-510.78583809706578
20
399.31054884804178
10
-510.78583809706572
20
423.21841387598806
42
0.41421356237309503
10
-512.78583809706583
20
425.21841387598812
10
-522.57167672546359
20
425.21841387598812
42
-0.41421356237309503
10
-524.57167672546359
20
427.21841387598818
10
-524.57167672546359
20
433.21841387598806
42
-0.41421356237309503
10
-522.57167672546359
20
435.21841387598812
10
-511.57167672546365
20
435.21841387598812
42
-0.41421356237309503
10
-509.57167672546359
20
433.21841387598806
10
-509.57167672546359
20
428.31054884804155
42
0.41421356237309503
10
-507.57167672546359
20
426.31054884804149
10
-483.78583857390299
20
426.31054884804149
42
0.41421356237309503
0
CIRCLE
5
101
100
AcDbEntity
8
0
100
AcDbCircle
10
-788.78583809702332
20
410.31054884804166
30
-3.6670492420398659e-07
40
2.5999999999999091
210
2.2204460492496514e-16
220
9.8607613152626476e-32
230
1
0
CIRCLE
5
102
100
AcDbEntity
8
0
100
AcDbCircle
10
-680.7858380970539
20
410.31054884804172
30
-3.6670493752666289e-07
40
2.6000000000000512
210
2.2204460492496514e-16
220
9.8607613152626476e-32
230
1
0
CIRCLE
5
103
100
AcDbEntity
8
0
100
AcDbCircle
10
-945.78583809706606
20
410.31054884804155
30
-3.6670490866086425e-07
40
2.5999999999999091
210
2.2204460492496514e-16
220
9.8607613152626476e-32
230
1
0
CIRCLE
5
104
100
AcDbEntity
8
0
100
AcDbCircle
10
-974.78583857390322
20
439.31054884804132
30
-3.6670489533818795e-07
40
2.6000000000000512
210
2.2204460492496514e-16
220
9.8607613152626476e-32
230
1
0
CIRCLE
5
105
100
AcDbEntity
8
0
100
AcDbCircle
10
-523.78583809706572
20
410.31054884804172
30
-3.6670495529023128e-07
40
2.5999999999999801
210
2.2204460492496514e-16
220
9.8607613152626476e-32
230
1
0
CIRCLE
5
106
100
AcDbEntity
8
0
100
AcDbCircle
10
-494.78583857390299
20
439.31054884804149
30
-3.6670494862889313e-07
40
2.5999999999999801
210
2.2204460492496514e-16
220
9.8607613152626476e-32
230
1
0
CIRCLE
5
107
100
AcDbEntity
8
0
100
AcDbCircle
10
-734.78583809706731
20
890.31054884804166
30
-3.6670482872480648e-07
40
2.6000000000000512
210
2.2204460492496514e-16
220
9.8607613152626476e-32
230
1
0
CIRCLE
5
108
100
AcDbEntity
8
0
100
AcDbCircle
10
-974.78583857390333
20
801.01054884803943
30
-3.6670480652034598e-07
40
2.6000000000000512
210
2.2204460492496514e-16
220
9.8607613152626476e-32
230
1
0
CIRCLE
5
109
100
AcDbEntity
8
0
100
AcDbCircle
10
-896.38583809706665
20
890.31054884804144
30
-3.6670481096123808e-07
40
2.6000000000000512
210
2.2204460492496514e-16
220
9.8607613152626476e-32
230
1
0
CIRCLE
5
110
100
AcDbEntity
8
0
100
AcDbCircle
10
-573.18583809706797
20
890.31054884804166
30
-3.6670484648837487e-07
40
2.5999999999999801
210
2.2204460492496514e-16
220
9.8607613152626476e-32
230
1
0
CIRCLE
5
111
100
AcDbEntity
8
0
100
AcDbCircle
10
-494.78583857390305
20
801.01054884804171
30
-3.6670485981105116e-07
40
2.5999999999999801
210
2.2204460492496514e-16
220
9.8607613152626476e-32
230
1
0
CIRCLE
5
112
100
AcDbEntity
8
0
100
AcDbCircle
10
-974.78583857390333
20
620.16054884804043
30
-3.6670483094525252e-07
40
2.6000000000000512
210
2.2204460492496514e-16
220
9.8607613152626476e-32
230
1
0
CIRCLE
5
113
100
AcDbEntity
8
0
100
AcDbCircle
10
-494.78583857390299
20
620.16054884804157
30
-3.6670488423595771e-07
40
2.5999999999999801
210
2.2204460492496514e-16
220
9.8607613152626476e-32
230
1
0
ENDSEC
0
SECTION
2
OBJECTS
0
DICTIONARY
5
C
100
AcDbDictionary
3
ACAD_GROUP
350
D
3
ACAD_MLINESTYLE
350
17
0
DICTIONARY
5
D
100
AcDbDictionary
0
DICTIONARY
5
1A
330
C
100
AcDbDictionary
0
DICTIONARY
5
17
100
AcDbDictionary
0
ENDSEC
0
EOF
