0
SECTION
2
HEADER
9
$INSUNITS
70
4
9
$ACADVER
1
AC1014
9
$HANDSEED
5
FFFF
0
ENDSEC
0
SECTION
2
TABLES
0
TABLE
2
VPORT
5
8
100
AcDbSymbolTable
0
ENDTAB
0
TABLE
2
LTYPE
5
5
100
AcDbSymbolTable
0
LTYPE
5
14
100
AcDbSymbolTableRecord
100
AcDbLinetypeTableRecord
2
BYBLOCK
70
0
0
LTYPE
5
15
100
AcDbSymbolTableRecord
100
AcDbLinetypeTableRecord
2
BYLAYER
70
0
0
ENDTAB
0
TABLE
2
LAYER
5
2
100
AcDbSymbolTable
70
2
0
LAYER
5
50
100
AcDbSymbolTableRecord
100
AcDbLayerTableRecord
2
0
70
0
6
CONTINUOUS
0
ENDTAB
0
TABLE
2
STYLE
5
3
100
AcDbSymbolTable
70
1
0
STYLE
5
11
100
AcDbSymbolTableRecord
100
AcDbTextStyleTableRecord
2
STANDARD
70
0
0
ENDTAB
0
TABLE
2
VIEW
5
6
100
AcDbSymbolTable
70
0
0
ENDTAB
0
TABLE
2
UCS
5
7
100
AcDbSymbolTable
70
0
0
ENDTAB
0
TABLE
2
APPID
5
9
100
AcDbSymbolTable
70
2
0
APPID
5
12
100
AcDbSymbolTableRecord
100
AcDbRegAppTableRecord
2
ACAD
70
0
0
ENDTAB
0
TABLE
2
DIMSTYLE
5
A
100
AcDbSymbolTable
70
1
0
ENDTAB
0
TABLE
2
BLOCK_RECORD
5
1
100
AcDbSymbolTable
70
1
0
BLOCK_RECORD
5
1F
100
AcDbSymbolTableRecord
100
AcDbBlockTableRecord
2
*MODEL_SPACE
0
BLOCK_RECORD
5
1B
100
AcDbSymbolTableRecord
100
AcDbBlockTableRecord
2
*PAPER_SPACE
0
ENDTAB
0
ENDSEC
0
SECTION
2
BLOCKS
0
BLOCK
5
20
100
AcDbEntity
100
AcDbBlockBegin
2
*MODEL_SPACE
0
ENDBLK
5
21
100
AcDbEntity
100
AcDbBlockEnd
0
BLOCK
5
1C
100
AcDbEntity
100
AcDbBlockBegin
2
*PAPER_SPACE
0
ENDBLK
5
1D
100
AcDbEntity
100
AcDbBlockEnd
0
ENDSEC
0
SECTION
2
ENTITIES
0
LINE
5
100
100
AcDbEntity
8
0
100
AcDbLine
10
978.03585643881956
20
388.34184515018705
30
-3.7490104318749218e-05
11
971.53585643881922
21
388.34184515018694
31
-3.7490104318749218e-05
0
ELLIPSE
5
101
100
AcDbEntity
8
0
100
AcDbEllipse
10
971.53585643881922
20
389.34184515018694
30
-3.7490104318749218e-05
11
-0.70710678118652992
21
-0.70710678118652737
31
0.0
40
0.99999999999997935
41
5.4977871437822587
42
7.0685834705769945
0
LINE
5
102
100
AcDbEntity
8
0
100
AcDbLine
10
970.53585643881934
20
389.34184515018694
30
-3.7490104318749218e-05
11
970.53585643881945
21
403.84184515018711
31
-3.7490104318749218e-05
0
ELLIPSE
5
103
100
AcDbEntity
8
0
100
AcDbEllipse
10
971.53585643881934
20
403.84184515018711
30
-3.7490104318749218e-05
11
0.70710678118652992
21
0.70710678118652948
31
0.0
40
0.99999999999997946
41
0.78539816339740809
42
2.3561944901923852
0
LINE
5
104
100
AcDbEntity
8
0
100
AcDbLine
10
971.53585643881934
20
404.84184515018705
30
-3.7490104318749218e-05
11
978.03585643881956
21
404.84184515018717
31
-3.7490104318749218e-05
0
ELLIPSE
5
105
100
AcDbEntity
8
0
100
AcDbEllipse
10
978.03585643881956
20
403.84184515018728
30
-3.7490104318749218e-05
11
0.70710678118652992
21
0.70710678118642667
31
0.0
40
0.99999999999997957
41
5.4977871437821779
42
7.0685834705771153
0
LINE
5
106
100
AcDbEntity
8
0
100
AcDbLine
10
979.03585643881934
20
403.84184515018728
30
-3.7490104318749218e-05
11
979.03585643881956
21
389.341845150187
31
-3.7490104318749218e-05
0
ELLIPSE
5
107
100
AcDbEntity
8
0
100
AcDbEllipse
10
978.03585643881979
20
389.341845150187
30
-3.7490104318749218e-05
11
-0.70710678118652992
21
-0.70710678118652948
31
0.0
40
0.99999999999997946
41
0.78539816339732771
42
2.3561944901923049
0
LINE
5
108
100
AcDbEntity
8
0
100
AcDbLine
10
490.5358381282536
20
389.34184515019189
30
-3.7490104318749218e-05
11
490.53583812825366
21
403.84184515019217
31
-3.7490104318749218e-05
0
ELLIPSE
5
109
100
AcDbEntity
8
0
100
AcDbEllipse
10
491.5358381282536
20
403.84184515019217
30
-3.7490104318749218e-05
11
-0.70710678118657988
21
-0.70710678118647896
31
0.0
40
0.99999999999997946
41
3.926990816987352
42
5.4977871437821078
0
LINE
5
110
100
AcDbEntity
8
0
100
AcDbLine
10
491.5358381282536
20
404.84184515019206
30
-3.7490104318749218e-05
11
498.03583812825377
21
404.84184515019223
31
-3.7490104318749218e-05
0
ELLIPSE
5
111
100
AcDbEntity
8
0
100
AcDbEllipse
10
498.03583812825377
20
403.84184515019234
30
-3.7490104318749218e-05
11
0.70710678118642945
21
0.70710678118652714
31
0.0
40
0.99999999999997957
41
5.4977871437821477
42
7.0685834705769244
0
LINE
5
112
100
AcDbEntity
8
0
100
AcDbLine
10
499.03583812825366
20
403.8418451501924
30
-3.7490104318749218e-05
11
499.03583812825366
21
389.34184515019217
31
-3.7490104318749218e-05
0
ELLIPSE
5
113
100
AcDbEntity
8
0
100
AcDbEllipse
10
498.03583812825372
20
389.34184515019211
30
-3.7490104318749218e-05
11
-0.70710678118657988
21
-0.70710678118647896
31
0.0
40
0.99999999999997946
41
0.78539816339757895
42
2.3561944901924958
0
LINE
5
114
100
AcDbEntity
8
0
100
AcDbLine
10
498.03583812825372
20
388.34184515019217
30
-3.7490104318749218e-05
11
491.53583812825354
21
388.34184515019194
31
-3.7490104318749218e-05
0
ELLIPSE
5
115
100
AcDbEntity
8
0
100
AcDbEllipse
10
491.53583812825354
20
389.34184515019194
30
-3.7490104318749218e-05
11
-0.70710678118652992
21
-0.70710678118652737
31
0.0
40
0.99999999999997935
41
5.4977871437822081
42
7.0685834705771855
0
ARC
5
116
100
AcDbEntity
8
0
100
AcDbCircle
10
985.78583857389935
20
352.07052036740754
30
-3.7490104318749218e-05
40
2.0000000000000284
210
0
220
0
230
1
100
AcDbArc
50
-90
51
0
0
LINE
5
117
100
AcDbEntity
8
0
100
AcDbLine
10
987.78583857389935
20
352.07052036740754
30
-3.7490104318749218e-05
11
987.78583857389958
21
621.09183820217913
31
-3.7490104318749218e-05
0
ARC
5
118
100
AcDbEntity
8
0
100
AcDbCircle
10
985.78583857389947
20
621.09183820217913
30
-3.7490104318749218e-05
40
2.0000000000001705
210
0
220
0
230
1
100
AcDbArc
50
0
51
90
0
LINE
5
119
100
AcDbEntity
8
0
100
AcDbLine
10
985.78583857389947
20
623.09183820217913
30
-3.7490104318749218e-05
11
483.78583857389958
21
623.09183820217925
31
-3.7490104318749218e-05
0
ARC
5
120
100
AcDbEntity
8
0
100
AcDbCircle
10
483.78583857389958
20
621.09183820217925
30
-3.7490104318749218e-05
40
2.0000000000000284
210
0
220
-0
230
1
100
AcDbArc
50
90
51
180
0
LINE
5
121
100
AcDbEntity
8
0
100
AcDbLine
10
481.78583857389953
20
621.09183820217925
30
-3.7490104318749218e-05
11
481.78583857389947
21
352.07052036736349
31
-3.7490104318749218e-05
0
ARC
5
122
100
AcDbEntity
8
0
100
AcDbCircle
10
483.78583857389947
20
352.07052036736349
30
-3.7490104318749218e-05
40
2.0000000000000284
210
0
220
0
230
1
100
AcDbArc
50
180
51
270
0
LINE
5
123
100
AcDbEntity
8
0
100
AcDbLine
10
483.78583857389947
20
350.07052036736349
30
-3.7490104318749218e-05
11
537.57167720229756
21
350.07052036736349
31
-3.7490104318749218e-05
0
ARC
5
124
100
AcDbEntity
8
0
100
AcDbCircle
10
537.57167720229756
20
348.07052036736343
30
-3.7490104318749218e-05
40
2.0000000000000284
210
0
220
0
230
1
100
AcDbArc
50
0
51
90
0
LINE
5
125
100
AcDbEntity
8
0
100
AcDbLine
10
539.57167720229768
20
348.07052036736343
30
-3.7490104318749218e-05
11
539.57167720229768
21
332.07052036736343
31
-3.7490104318749218e-05
0
ARC
5
126
100
AcDbEntity
8
0
100
AcDbCircle
10
537.57167720229756
20
332.07052036736343
30
-3.7490104318749218e-05
40
1.9999999999999574
210
0
220
0
230
1
100
AcDbArc
50
-90
51
0
0
LINE
5
127
100
AcDbEntity
8
0
100
AcDbLine
10
537.57167720229756
20
330.07052036736349
30
-3.7490104318749218e-05
11
483.78583857389947
21
330.07052036736349
31
-3.7490104318749218e-05
0
ARC
5
128
100
AcDbEntity
8
0
100
AcDbCircle
10
483.78583857389947
20
328.07052036736354
30
-3.7490104318749218e-05
40
1.9999999999999574
210
0
220
-0
230
1
100
AcDbArc
50
90
51
180
0
LINE
5
129
100
AcDbEntity
8
0
100
AcDbLine
10
481.78583857389947
20
328.07052036736354
30
-3.7490104318749218e-05
11
481.78583857389935
21
4.0918382021793214
31
-3.7490104318749218e-05
0
ARC
5
130
100
AcDbEntity
8
0
100
AcDbCircle
10
483.78583857389941
20
4.0918382021793187
30
-3.7490104318749218e-05
40
2.0000000000000284
210
0
220
0
230
1
100
AcDbArc
50
180
51
270
0
LINE
5
131
100
AcDbEntity
8
0
100
AcDbLine
10
483.78583857389941
20
2.0918382021793192
30
-3.7490104318749218e-05
11
534.78583857389935
21
2.0918382021792925
31
-3.7490104318749218e-05
0
ARC
5
132
100
AcDbEntity
8
0
100
AcDbCircle
10
534.78583857389935
20
4.0918382021792983
30
-3.7490104318749218e-05
40
2.0000000000000062
210
0
220
0
230
1
100
AcDbArc
50
-90
51
0
0
LINE
5
133
100
AcDbEntity
8
0
100
AcDbLine
10
536.78583857389935
20
4.0918382021793009
30
-3.7490104318749218e-05
11
536.78583857389935
21
22.091838202179307
31
-3.7490104318749218e-05
0
ARC
5
134
100
AcDbEntity
8
0
100
AcDbCircle
10
538.78583857389935
20
22.0918382021793
30
-3.7490104318749218e-05
40
2.0000000000000018
210
0
220
-0
230
1
100
AcDbArc
50
90
51
180
0
LINE
5
135
100
AcDbEntity
8
0
100
AcDbLine
10
538.78583857389935
20
24.0918382021793
30
-3.7490104318749218e-05
11
565.78583857389935
21
24.091838202179275
31
-3.7490104318749218e-05
0
ARC
5
136
100
AcDbEntity
8
0
100
AcDbCircle
10
565.78583857389935
20
22.091838202179286
30
-3.7490104318749218e-05
40
2.0000000000000284
210
0
220
-0
230
1
100
AcDbArc
50
0
51
90
0
LINE
5
137
100
AcDbEntity
8
0
100
AcDbLine
10
567.78583857389935
20
22.091838202179297
30
-3.7490104318749218e-05
11
567.78583857389947
21
4.0918382021792876
31
-3.7490104318749218e-05
0
ARC
5
138
100
AcDbEntity
8
0
100
AcDbCircle
10
569.78583857389947
20
4.0918382021792858
30
-3.7490104318749218e-05
40
1.9999999999999574
210
0
220
0
230
1
100
AcDbArc
50
180
51
270
0
LINE
5
139
100
AcDbEntity
8
0
100
AcDbLine
10
569.78583857389947
20
2.0918382021792858
30
-3.7490104318749218e-05
11
899.78583857389935
21
2.0918382021791504
31
-3.7490104318749218e-05
0
ARC
5
140
100
AcDbEntity
8
0
100
AcDbCircle
10
899.78583857389935
20
4.0918382021791562
30
-3.7490104318749218e-05
40
2.0000000000000062
210
0
220
0
230
1
100
AcDbArc
50
-90
51
0
0
LINE
5
141
100
AcDbEntity
8
0
100
AcDbLine
10
901.78583857389935
20
4.0918382021791615
30
-3.7490104318749218e-05
11
901.78583857389924
21
22.091838202179147
31
-3.7490104318749218e-05
0
ARC
5
142
100
AcDbEntity
8
0
100
AcDbCircle
10
903.78583857389935
20
22.091838202179144
30
-3.7490104318749218e-05
40
1.9999999999999973
210
0
220
-0
230
1
100
AcDbArc
50
90
51
180
0
LINE
5
143
100
AcDbEntity
8
0
100
AcDbLine
10
903.78583857389935
20
24.09183820217914
30
-3.7490104318749218e-05
11
930.78583857389935
21
24.091838202179133
31
-3.7490104318749218e-05
0
ARC
5
144
100
AcDbEntity
8
0
100
AcDbCircle
10
930.78583857389935
20
22.09183820217913
30
-3.7490104318749218e-05
40
2.0000000000000284
210
0
220
-0
230
1
100
AcDbArc
50
0
51
90
0
LINE
5
145
100
AcDbEntity
8
0
100
AcDbLine
10
932.78583857389935
20
22.091838202179133
30
-3.7490104318749218e-05
11
932.78583857389947
21
4.0918382021791455
31
-3.7490104318749218e-05
0
ARC
5
146
100
AcDbEntity
8
0
100
AcDbCircle
10
934.78583857389935
20
4.0918382021791437
30
-3.7490104318749218e-05
40
1.9999999999998863
210
0
220
0
230
1
100
AcDbArc
50
180
51
270
0
LINE
5
147
100
AcDbEntity
8
0
100
AcDbLine
10
934.78583857389935
20
2.0918382021791437
30
-3.7490104318749218e-05
11
985.78583857389935
21
2.0918382021791171
31
-3.7490104318749218e-05
0
ARC
5
148
100
AcDbEntity
8
0
100
AcDbCircle
10
985.78583857389935
20
4.09183820217911
30
-3.7490104318749218e-05
40
1.9999999999999929
210
0
220
0
230
1
100
AcDbArc
50
-90
51
0
0
LINE
5
149
100
AcDbEntity
8
0
100
AcDbLine
10
987.78583857389935
20
4.09183820217911
30
-3.7490104318749218e-05
11
987.78583857389958
21
328.07052036740754
31
-3.7490104318749218e-05
0
ARC
5
150
100
AcDbEntity
8
0
100
AcDbCircle
10
985.78583857389935
20
328.07052036740754
30
-3.7490104318749218e-05
40
2.0000000000003126
210
0
220
0
230
1
100
AcDbArc
50
0
51
90
0
LINE
5
151
100
AcDbEntity
8
0
100
AcDbLine
10
985.78583857389935
20
330.07052036740754
30
-3.7490104318749218e-05
11
931.57167720229791
21
330.07052036740743
31
-3.7490104318749218e-05
0
ARC
5
152
100
AcDbEntity
8
0
100
AcDbCircle
10
931.57167720229791
20
332.07052036740748
30
-3.7490104318749218e-05
40
2.0000000000000284
210
0
220
0
230
1
100
AcDbArc
50
180
51
270
0
LINE
5
153
100
AcDbEntity
8
0
100
AcDbLine
10
929.57167720229791
20
332.07052036740748
30
-3.7490104318749218e-05
11
929.57167720229779
21
348.07052036740748
31
-3.7490104318749218e-05
0
ARC
5
154
100
AcDbEntity
8
0
100
AcDbCircle
10
931.57167720229768
20
348.07052036740748
30
-3.7490104318749218e-05
40
2.0000000000000284
210
0
220
-0
230
1
100
AcDbArc
50
90
51
180
0
LINE
5
155
100
AcDbEntity
8
0
100
AcDbLine
10
931.57167720229768
20
350.07052036740754
30
-3.7490104318749218e-05
11
985.78583857389935
21
350.07052036740754
31
-3.7490104318749218e-05
0
CIRCLE
5
156
100
AcDbEntity
8
0
100
AcDbCircle
10
734.78583857389935
20
568.0918382021872
30
-3.749010495823768e-05
40
4.7000000000000002
210
-2.7755580909579341e-16
220
-1.5370492530562837e-44
230
1
0
CIRCLE
5
157
100
AcDbEntity
8
0
100
AcDbCircle
10
734.78583857389947
20
610.09183820217913
30
-3.7490104318749218e-05
40
2.6000000000001422
210
3.9097918615016398e-29
220
-1.5192591241632523e-44
230
1
0
CIRCLE
5
158
100
AcDbEntity
8
0
100
AcDbCircle
10
734.78583857389947
20
442.59183820217913
30
-3.7490104318749218e-05
40
2.5999999999999091
210
3.9097918615016398e-29
220
-1.5192591241632523e-44
230
1
0
CIRCLE
5
159
100
AcDbEntity
8
0
100
AcDbCircle
10
734.78583857389935
20
15.091838202179241
30
-3.7490104318749218e-05
40
2.6000000000000512
210
3.9097918615016398e-29
220
-1.5192591241632523e-44
230
1
0
CIRCLE
5
160
100
AcDbEntity
8
0
100
AcDbCircle
10
734.78583857389935
20
220.09183820217919
30
-3.7490104318749218e-05
40
2.6000000000000512
210
3.9097918615016398e-29
220
-1.5192591241632523e-44
230
1
0
CIRCLE
5
161
100
AcDbEntity
8
0
100
AcDbCircle
10
876.78583857389924
20
15.091838202178725
30
-3.7490104318749218e-05
40
2.6000000000000512
210
3.9097918615016398e-29
220
-1.5192591241632523e-44
230
1
0
CIRCLE
5
162
100
AcDbEntity
8
0
100
AcDbCircle
10
974.78583857389935
20
15.091838202179149
30
-3.7490104318749218e-05
40
2.5999999999999091
210
3.9097918615016398e-29
220
-1.5192591241632523e-44
230
1
0
CIRCLE
5
163
100
AcDbEntity
8
0
100
AcDbCircle
10
937.78583857394563
20
456.49183773442576
30
-3.7490104318749218e-05
40
17.5
210
3.9097918615016398e-29
220
-1.5192591241632523e-44
230
1
0
CIRCLE
5
164
100
AcDbEntity
8
0
100
AcDbCircle
10
974.78583857389947
20
610.09183820217902
30
-3.7490104318749218e-05
40
2.6000000000000001
210
3.9097918615016398e-29
220
-1.5192591241632523e-44
230
1
0
CIRCLE
5
165
100
AcDbEntity
8
0
100
AcDbCircle
10
494.78583857389947
20
610.09183820217925
30
-3.7490104318749218e-05
40
2.6000000000001422
210
3.9097918615016398e-29
220
-1.5192591241632523e-44
230
1
0
CIRCLE
5
166
100
AcDbEntity
8
0
100
AcDbCircle
10
531.78583857385308
20
456.49183773443519
30
-3.7490104318749218e-05
40
17.5
210
3.9097918615016398e-29
220
-1.5192591241632523e-44
230
1
0
CIRCLE
5
167
100
AcDbEntity
8
0
100
AcDbCircle
10
494.78583857389935
20
15.091838202179336
30
-3.7490104318749218e-05
40
2.5999999999999801
210
3.9097918615016398e-29
220
-1.5192591241632523e-44
230
1
0
CIRCLE
5
168
100
AcDbEntity
8
0
100
AcDbCircle
10
592.78583857389947
20
15.091838202179757
30
-3.7490104318749218e-05
40
2.5999999999999801
210
3.9097918615016398e-29
220
-1.5192591241632523e-44
230
1
0
ENDSEC
0
SECTION
2
OBJECTS
0
DICTIONARY
5
C
100
AcDbDictionary
3
ACAD_GROUP
350
D
3
ACAD_MLINESTYLE
350
17
0
DICTIONARY
5
D
100
AcDbDictionary
0
DICTIONARY
5
1A
330
C
100
AcDbDictionary
0
DICTIONARY
5
17
100
AcDbDictionary
0
ENDSEC
0
EOF
